<?xml version="1.0" standalone="no"?>
<svg xmlns="http://www.w3.org/2000/svg" viewBox="0 0 100.736 48.36" width="100.736" height="48.36"><rect fill="none" stroke="#4ad0ff" stroke-width="3" width="97.736" height="45.36" x="1.5" y="1.5"></rect><g fill="#0019ff" color="#0019ff" transform="translate(12, 12) scale(0.58)"><svg width="50.0" height="42.0" x="0.0" y="0.0" viewBox="0 0 50 42"><path fill="currentColor" fill-rule="nonzero" d="M21.3 13.56l5.81 12.46-10.95-2.3-5.81-12.46 10.95 2.3zm20.86-9.73l5.81 12.46-10.95-2.3-5.81-12.46 10.95 2.3zm-8.91 36.83L8.44 36.19 16 24.99l12.1 2.54c.05.01.09.01.13.01.09 0 .18-.02.27-.06.01 0 .01-.01.01-.01.03-.01.05-.04.08-.06.03-.02.05-.05.08-.07.03-.03.07-.05.09-.08l8.11-12.01 11.19 2.35-14.81 23.06zm16.45-23.3c.01-.02.02-.03.03-.05.01-.05-.02-.08-.03-.13 0-.07.01-.13-.02-.2-.01-.02.01-.05-.01-.07L43.19 3c-.01-.02-.03-.02-.03-.03-.04-.07-.11-.11-.18-.16-.07-.05-.12-.11-.2-.14-.02-.01-.02-.02-.04-.03L30.22.01c-.04-.01-.08.03-.13.03-.07 0-.13 0-.19.02-.03.01-.06-.01-.08 0-.01.01-.02.03-.03.03-.05.03-.08.07-.12.12-.03.03-.08.03-.11.07l-8.11 12.01-12.1-2.54c-.05-.01-.08.02-.13.02-.07 0-.12 0-.19.02-.03.01-.06-.01-.08.01-.02.01-.02.03-.03.03-.05.03-.08.07-.12.12-.03.03-.08.03-.11.07L.34 22.37c-.02.02 0 .05-.02.08-.04.08-.04.15-.05.23-.01.08-.02.16.01.24.02.03 0 .05.01.08l6.49 13.91c.01.02.03.03.05.05.02.04.04.06.07.09.03.03.05.06.08.08.01.01.01.03.02.04 0 0 .01 0 .01.01.05.03.11.04.17.05.03.01.04.04.06.04l26.2 4.72a.61.61 0 0 0 .48-.12c.03-.02.05-.05.08-.07.03-.03.07-.05.1-.09l15.54-24.18c.02-.02 0-.05.01-.07.02-.04.03-.07.05-.1z"></path></svg></g><line x1="51.5" y1="0" x2="51.5" y2="100%" stroke="#4ad0ff" stroke-width="3"></line><path fill="#0019ff" fill-rule="nonzero" d="M8.02 8.88L8.02 8.88L10.85 8.86Q10.82 9.05 10.80 9.55Q10.78 10.06 10.76 10.24Q10.75 10.42 10.70 10.80Q10.66 11.18 10.60 11.36Q10.54 11.54 10.44 11.83L10.44 11.83Q10.01 13.08 8.09 13.80L8.09 13.80Q6.86 14.23 5.53 14.23Q4.20 14.23 3.12 13.80Q2.04 13.37 1.42 12.70L1.42 12.70Q0 11.21 0 7.12Q0 3.02 1.42 1.54L1.42 1.54Q2.04 0.86 3.12 0.43Q4.20 0 5.52 0L5.52 0Q8.11 0 9.46 1.30Q10.80 2.59 10.80 4.90L10.80 4.90L7.97 4.90Q7.97 3.84 7.44 3.32Q6.91 2.81 5.48 2.81Q4.06 2.81 3.59 3.70Q3.12 4.58 3.12 6.36L3.12 6.36L3.12 7.61Q3.12 10.46 4.22 11.11L4.22 11.11Q4.73 11.42 5.54 11.42Q6.36 11.42 6.88 11.27Q7.39 11.11 7.62 10.73Q7.85 10.34 7.92 9.97Q7.99 9.60 8.02 8.88ZM20.74 0.24L20.74 0.24L19.87 3.31Q19.51 3.17 19.06 3.17L19.06 3.17Q17.86 3.17 16.10 4.20L16.10 4.20L16.10 13.90L12.98 13.90L12.98 0.19L15.31 0.19L16.03 1.39L19.34 0.02Q19.58 0 19.99 0Q20.40 0 20.74 0.24Z" transform="translate(65 17.064)"></path></svg>